<?xml version="1.0" standalone="no"?>
<!DOCTYPE svg PUBLIC "-//W3C//DTD SVG 20010904//EN"
 "http://www.w3.org/TR/2001/REC-SVG-20010904/DTD/svg10.dtd">
<svg version="1.0" xmlns="http://www.w3.org/2000/svg"
 width="201.000000pt" height="190.000000pt" viewBox="0 0 201.000000 190.000000"
 preserveAspectRatio="xMidYMid meet">

<g transform="translate(0.000000,190.000000) scale(0.100000,-0.100000)"
fill="#1E77DC" stroke="none">
<path d="M542 1827 c-29 -29 -52 -56 -52 -60 0 -4 172 -7 383 -7 l382 0 28 35
c22 28 35 35 63 35 47 0 84 -37 84 -82 -1 -85 -102 -116 -152 -47 l-22 29
-530 0 -531 0 145 -145 c80 -80 149 -145 153 -145 5 0 29 18 53 39 53 47 185
113 269 136 180 48 412 19 559 -70 l59 -35 86 82 c47 46 88 87 90 92 2 4 -39
50 -90 102 l-94 94 -415 0 -416 0 -52 -53z"/>
<path d="M1312 1778 c-16 -16 -15 -53 2 -68 21 -16 56 -9 72 15 27 41 -39 88
-74 53z"/>
<path d="M1723 1722 c-68 -3 -88 -12 -62 -28 7 -4 -29 -47 -91 -109 l-102
-102 29 -21 29 -21 139 139 c77 77 137 141 135 142 -3 2 -38 2 -77 0z"/>
<path d="M1703 1558 c-79 -79 -143 -147 -143 -151 0 -5 17 -29 39 -55 131
-159 187 -389 147 -607 -9 -49 -19 -102 -22 -116 -5 -24 -4 -26 29 -24 19 1
42 8 51 17 8 9 21 18 28 20 9 3 13 124 16 509 2 277 3 514 1 527 -3 19 -24 3
-146 -120z"/>
<path d="M883 1585 c-79 -17 -80 -18 -81 -55 -1 -35 1 -36 128 -16 59 9 101
22 138 43 l53 30 -32 7 c-49 10 -138 6 -206 -9z"/>
<path d="M1180 1563 c-8 -3 -35 -14 -60 -25 l-45 -20 64 -14 c132 -28 276
-119 359 -227 72 -93 131 -245 132 -340 1 -41 75 -176 84 -152 11 30 6 175 -9
253 -10 48 -33 113 -63 172 -65 131 -178 247 -302 308 -86 43 -133 56 -160 45z"/>
<path d="M112 1397 l-92 -93 2 -349 3 -350 53 -1 52 -1 0 269 0 269 -30 26
c-22 18 -30 33 -30 58 0 79 90 116 145 60 37 -36 33 -80 -10 -121 l-35 -33 0
-93 c0 -51 3 -170 7 -264 l6 -171 63 0 62 0 -13 36 c-23 66 -38 206 -32 297 7
117 28 191 81 295 l44 86 -87 87 c-47 47 -89 86 -91 86 -3 0 -47 -42 -98 -93z"/>
<path d="M1890 1029 l0 -386 25 -13 c14 -7 25 -17 25 -22 0 -4 14 -8 30 -8
l30 0 0 353 0 353 -55 54 -55 54 0 -385z"/>
<path d="M132 1264 c-43 -30 -18 -93 33 -80 25 6 43 45 30 65 -14 24 -42 30
-63 15z"/>
<path d="M840 968 c0 -90 3 -187 6 -215 l7 -53 67 0 67 0 6 98 c4 53 7 121 7
150 0 28 5 52 10 52 6 0 11 -8 11 -17 1 -10 4 -76 8 -148 l6 -130 64 -3 c45
-2 67 1 72 10 5 7 9 90 9 184 l0 170 -33 32 -33 32 -137 0 -137 0 0 -162z"/>
<path d="M1616 748 c-38 -171 -168 -334 -330 -414 -82 -40 -195 -73 -253 -74
-12 0 -47 -15 -78 -34 l-57 -34 59 -7 c67 -7 176 6 275 33 161 45 327 187 411
350 26 51 47 105 47 120 0 25 -44 132 -54 132 -2 0 -11 -33 -20 -72z"/>
<path d="M1582 407 c-12 -13 -22 -28 -22 -33 0 -5 65 -74 145 -154 l145 -145
0 99 c0 95 -1 98 -18 83 -10 -10 -23 -17 -28 -17 -5 0 -52 43 -104 95 l-96 96
-22 -24z"/>
<path d="M346 201 l-138 -138 82 -7 c45 -4 85 -5 88 -2 3 4 -2 14 -11 23 -16
16 -11 23 84 119 l101 101 -27 22 c-15 11 -31 21 -34 21 -3 0 -69 -62 -145
-139z"/>
<path d="M803 258 c3 -30 7 -33 32 -30 16 2 45 10 64 19 l36 16 -60 13 c-80
18 -77 18 -72 -18z"/>
</g>
</svg>
